<svg version="1.0" xmlns="http://www.w3.org/2000/svg" width="100%" height="100%" viewBox="0 0 1100.000000 450.000000" preserveAspectRatio="xMidYMid meet" fit="" focusable="false">
 
<g transform="translate(0.000000,450.000000) scale(0.100000,-0.100000)" fill="#003f2d" stroke="none">
<path d="M280 4248 c0 -7 132 -433 292 -945 l293 -933 733 0 732 0 0 624 c0
343 -3 637 -6 653 -6 29 -7 29 -347 128 -188 54 -371 106 -407 116 -36 10
-110 31 -165 47 -55 16 -109 32 -120 35 -11 3 -91 26 -179 51 -87 25 -166 46
-175 46 -10 0 -21 4 -27 9 -5 4 -56 21 -114 36 -58 15 -114 31 -125 35 -43 17
-128 40 -146 40 -11 0 -27 4 -37 9 -18 10 -183 61 -195 61 -4 0 -7 -6 -7 -12z"></path>
<path d="M4495 4233 c-44 -13 -88 -29 -97 -34 -10 -5 -26 -9 -37 -9 -18 0
-103 -23 -146 -40 -11 -4 -67 -20 -125 -35 -58 -15 -109 -32 -114 -36 -6 -5
-17 -9 -27 -9 -9 0 -88 -21 -175 -46 -88 -25 -168 -48 -179 -51 -11 -3 -65
-19 -120 -35 -55 -16 -129 -37 -165 -47 -36 -10 -219 -62 -407 -116 -340 -99
-341 -99 -347 -128 -3 -16 -6 -310 -6 -653 l0 -624 733 0 732 0 293 933 c160
512 292 938 292 945 0 16 -11 15 -105 -15z"></path>
<path fill="#72958b" d="M10283 3006 c-219 -72 -333 -238 -333 -481 0 -251 76 -334 395 -431
142 -43 184 -63 219 -104 52 -63 23 -155 -61 -192 -37 -16 -61 -20 -122 -16
-89 5 -159 33 -258 104 -36 26 -68 42 -73 38 -20 -23 -160 -301 -158 -314 4
-22 214 -124 300 -146 57 -15 109 -19 233 -19 149 0 166 2 240 28 101 35 204
104 251 168 20 27 47 80 60 117 21 59 24 85 24 212 0 135 -2 149 -26 200 -50
109 -167 188 -359 245 -175 51 -232 83 -249 142 -11 35 20 87 67 114 77 44
223 22 314 -47 17 -13 35 -24 40 -24 8 0 163 289 163 304 0 13 -143 74 -225
96 -60 17 -117 23 -225 26 -133 4 -151 2 -217 -20z"></path>
<path fill="#72958b" d="M6090 2235 l0 -755 200 0 200 0 0 250 0 250 178 0 c200 0 271 12 364
62 102 54 173 151 203 280 18 75 19 236 4 310 -38 179 -160 298 -350 343 -51
12 -139 15 -431 15 l-368 0 0 -755z m655 409 c62 -30 85 -73 85 -159 0 -134
-55 -177 -232 -183 l-108 -4 0 187 0 188 108 -5 c79 -3 118 -9 147 -24z"></path>
<path fill="#72958b" d="M7410 2235 l0 -755 435 0 435 0 0 170 0 170 -235 0 -235 0 0 585 0
585 -200 0 -200 0 0 -755z"></path>
<path fill="#72958b" d="M8400 2471 c0 -573 4 -618 60 -736 102 -213 353 -319 698 -293 238
17 422 124 502 293 56 118 60 163 60 736 l0 519 -199 0 -200 0 -3 -497 c-4
-543 -3 -541 -64 -620 -43 -56 -96 -78 -194 -78 -98 0 -151 22 -194 78 -61 79
-60 77 -64 620 l-3 497 -200 0 -199 0 0 -519z"></path>
<path d="M572 1167 c-160 -512 -292 -938 -292 -944 0 -7 3 -13 7 -13 12 0 177
51 195 61 10 5 26 9 37 9 18 0 103 23 146 40 11 4 67 20 125 35 58 15 109 32
115 36 5 5 16 9 26 9 9 0 88 21 175 46 88 25 168 48 179 51 11 3 65 19 120 35
55 16 129 37 165 47 36 10 219 62 407 116 340 99 341 99 347 128 3 16 6 310 6
653 l0 624 -732 0 -733 0 -293 -933z"></path>
<path d="M2550 1476 c0 -343 3 -637 6 -653 6 -29 7 -29 347 -128 188 -54 371
-106 407 -116 36 -10 110 -31 165 -47 55 -16 109 -32 120 -35 11 -3 91 -26
179 -51 87 -25 166 -46 175 -46 10 0 21 -4 26 -9 6 -4 57 -21 115 -36 58 -15
114 -31 125 -35 43 -17 128 -40 146 -40 11 0 27 -4 37 -9 18 -10 183 -61 195
-61 4 0 7 6 7 13 0 6 -132 432 -292 944 l-293 933 -732 0 -733 0 0 -624z"></path>
</g>
</svg>